<svg xmlns="http://www.w3.org/2000/svg"
     viewBox="0 0 32 32"
     width="256" height="256"
     shape-rendering="crispEdges"
     role="img"
     aria-label="GameDivers logo">
  <style>
    .ol { fill: var(--gd-outline, #050816); }
    .su { fill: var(--gd-suit, #111827); }
    .vi { fill: var(--gd-visor, #22d3ee); }
    .vh { fill: var(--gd-visor-hi, #cffafe); }
    .dk { fill: var(--gd-dark, #0b1220); }
    .tn { fill: var(--gd-tank, #64748b); }
    .tm { fill: var(--gd-tank-mid, #94a3b8); }
    .ac { fill: var(--gd-accent, #2dd4bf); }
    .bb { fill: var(--gd-bubble, #e0f2fe); }
  </style>

  <g>
    <rect class="ol" x="1" y="9" width="4" height="1"/>
    <rect class="ol" x="0" y="10" width="6" height="10"/>
    <rect class="ol" x="1" y="20" width="4" height="1"/>
    <rect class="tn" x="1" y="10" width="4" height="10"/>
    <rect class="tm" x="2" y="11" width="1" height="8"/>
    <rect class="ol" x="2" y="8" width="2" height="1"/>
    <rect class="tn" x="2" y="9" width="2" height="1"/>

    <rect class="ol" x="27" y="9" width="4" height="1"/>
    <rect class="ol" x="26" y="10" width="6" height="10"/>
    <rect class="ol" x="27" y="20" width="4" height="1"/>
    <rect class="tn" x="27" y="10" width="4" height="10"/>
    <rect class="tm" x="28" y="11" width="1" height="8"/>
    <rect class="ol" x="28" y="8" width="2" height="1"/>
    <rect class="tn" x="28" y="9" width="2" height="1"/>
  </g>

  <g class="ol">
    <rect x="14" y="4" width="4" height="1"/>
    <rect x="12" y="5" width="8" height="1"/>
    <rect x="11" y="6" width="10" height="1"/>
    <rect x="10" y="7" width="12" height="1"/>
    <rect x="9" y="8" width="14" height="1"/>
    <rect x="9" y="9" width="14" height="1"/>
    <rect x="8" y="10" width="16" height="1"/>
    <rect x="8" y="11" width="16" height="1"/>
    <rect x="7" y="12" width="18" height="1"/>
    <rect x="6" y="13" width="20" height="1"/>
    <rect x="5" y="14" width="22" height="1"/>
    <rect x="5" y="15" width="22" height="1"/>
    <rect x="4" y="16" width="24" height="1"/>
    <rect x="5" y="17" width="22" height="1"/>
    <rect x="6" y="18" width="20" height="1"/>
    <rect x="8" y="19" width="16" height="1"/>
    <rect x="9" y="20" width="14" height="1"/>

    <rect x="9" y="21" width="5" height="1"/>
    <rect x="18" y="21" width="5" height="1"/>
    <rect x="8" y="22" width="6" height="1"/>
    <rect x="18" y="22" width="6" height="1"/>
    <rect x="7" y="23" width="5" height="1"/>
    <rect x="20" y="23" width="5" height="1"/>
    <rect x="6" y="24" width="5" height="1"/>
    <rect x="21" y="24" width="5" height="1"/>
    <rect x="6" y="25" width="3" height="1"/>
    <rect x="23" y="25" width="3" height="1"/>
  </g>

  <g class="su">
    <rect x="13" y="6" width="6" height="1"/>
    <rect x="12" y="7" width="8" height="1"/>
    <rect x="11" y="8" width="10" height="1"/>
    <rect x="10" y="9" width="12" height="1"/>
    <rect x="10" y="10" width="12" height="1"/>
    <rect x="9" y="11" width="14" height="1"/>
    <rect x="9" y="12" width="14" height="1"/>
    <rect x="8" y="13" width="16" height="1"/>
    <rect x="7" y="14" width="18" height="1"/>
    <rect x="7" y="15" width="18" height="1"/>
    <rect x="6" y="16" width="20" height="1"/>
    <rect x="7" y="17" width="18" height="1"/>
    <rect x="8" y="18" width="16" height="1"/>
    <rect x="10" y="19" width="12" height="1"/>

    <rect x="10" y="20" width="4" height="1"/>
    <rect x="18" y="20" width="4" height="1"/>
    <rect x="10" y="21" width="3" height="1"/>
    <rect x="19" y="21" width="3" height="1"/>
    <rect x="9" y="22" width="3" height="1"/>
    <rect x="20" y="22" width="3" height="1"/>
    <rect x="8" y="23" width="3" height="1"/>
    <rect x="21" y="23" width="3" height="1"/>
  </g>

  <g class="ac">
    <rect x="6" y="12" width="1" height="5"/>
    <rect x="7" y="13" width="1" height="3"/>
    <rect x="25" y="12" width="1" height="5"/>
    <rect x="24" y="13" width="1" height="3"/>
    <rect x="14" y="14" width="4" height="2"/>
  </g>

  <g>
    <rect class="vi" x="12" y="8" width="8" height="1"/>
    <rect class="vi" x="11" y="9" width="10" height="1"/>
    <rect class="vi" x="11" y="10" width="10" height="1"/>
    <rect class="vi" x="12" y="11" width="8" height="1"/>
    <rect class="vi" x="13" y="12" width="6" height="1"/>

    <rect class="vh" x="13" y="8" width="2" height="1"/>
    <rect class="vh" x="12" y="9" width="2" height="1"/>
    <rect class="vh" x="12" y="10" width="1" height="1"/>

    <rect class="dk" x="13" y="10" width="2" height="1"/>
    <rect class="dk" x="17" y="10" width="2" height="1"/>

    <rect class="ol" x="14" y="12" width="4" height="2"/>
    <rect class="dk" x="15" y="12" width="2" height="2"/>
    <rect class="ac" x="14" y="13" width="1" height="1"/>
    <rect class="ac" x="17" y="13" width="1" height="1"/>
  </g>

  <g>
    <rect class="ac" x="18" y="13" width="2" height="1"/>
    <rect class="ac" x="20" y="13" width="1" height="1"/>
    <rect class="ac" x="21" y="14" width="1" height="1"/>
    <rect class="ac" x="22" y="14" width="1" height="1"/>
    <rect class="ac" x="23" y="15" width="1" height="1"/>
    <rect class="ac" x="24" y="15" width="1" height="1"/>
    <rect class="ac" x="25" y="16" width="1" height="1"/>
    <rect class="ac" x="26" y="16" width="1" height="1"/>

    <rect class="ol" x="20" y="14" width="1" height="1"/>
    <rect class="ol" x="22" y="15" width="1" height="1"/>
    <rect class="ol" x="24" y="16" width="1" height="1"/>
  </g>

  <g class="ac">
    <rect x="3" y="14" width="2" height="1"/>
    <rect x="2" y="15" width="3" height="1"/>
    <rect x="2" y="16" width="2" height="1"/>
    <rect x="3" y="17" width="2" height="1"/>

    <rect x="27" y="14" width="2" height="1"/>
    <rect x="27" y="15" width="3" height="1"/>
    <rect x="28" y="16" width="2" height="1"/>
    <rect x="27" y="17" width="2" height="1"/>
  </g>

  <g>
    <rect class="ac" x="6" y="24" width="5" height="1"/>
    <rect class="ac" x="6" y="25" width="4" height="1"/>
    <rect class="vh" x="7" y="24" width="1" height="1"/>

    <rect class="ac" x="21" y="24" width="5" height="1"/>
    <rect class="ac" x="22" y="25" width="4" height="1"/>
    <rect class="vh" x="24" y="24" width="1" height="1"/>
  </g>

  <g class="bb">
    <rect x="29" y="4" width="1" height="1"/>
    <rect x="31" y="5" width="1" height="1"/>
    <rect x="28" y="3" width="1" height="1"/>
    <rect x="30" y="2" width="1" height="1"/>
  </g>
</svg>
